<svg width="56" height="19" viewBox="0 0 56 19" fill="none" xmlns="http://www.w3.org/2000/svg">
<path d="M10.3779 11.9764C9.22588 12.4404 8.35388 12.8404 7.76188 13.1764C7.16988 13.5124 6.70588 13.8884 6.36988 14.3044H15.8499V18.0004H0.921875V16.4884C1.00188 15.1444 1.37787 14.0244 2.04987 13.1284C2.75387 12.2004 3.55387 11.4804 4.44987 10.9684C5.39387 10.4244 6.55388 9.84838 7.92988 9.24038C8.80988 8.85638 9.49788 8.53638 9.99388 8.28038C11.1299 7.70438 11.6979 7.04038 11.6979 6.28838C11.6979 5.88838 11.4419 5.57638 10.9299 5.35238C10.4339 5.11237 9.75388 4.99237 8.88988 4.99237C7.94588 4.99237 7.20988 5.16837 6.68188 5.52037C6.15388 5.85638 5.88988 6.33638 5.88988 6.96038H1.16188C1.16188 5.07238 1.84988 3.60838 3.22588 2.56838C4.61788 1.51238 6.55388 0.984375 9.03388 0.984375C11.3219 0.984375 13.1139 1.44038 14.4099 2.35238C15.7219 3.24838 16.3779 4.48838 16.3779 6.07238C16.3779 7.12838 16.0979 8.03238 15.5379 8.78438C15.0259 9.48838 14.3459 10.0804 13.4979 10.5604C12.6979 10.9924 11.6579 11.4644 10.3779 11.9764Z" fill="white"/>
<path d="M35.6232 13.3924C35.6232 14.9604 35.1272 16.1204 34.1353 16.8724C33.1593 17.6244 31.6552 18.0004 29.6232 18.0004H18.9912V1.20038H29.6232C33.5592 1.20038 35.5273 2.66437 35.5273 5.59238C35.5273 7.46438 34.6393 8.72837 32.8633 9.38437V9.48038C34.7032 10.1684 35.6232 11.4724 35.6232 13.3924ZM29.1432 4.94438H23.6953V7.82438H28.9272C29.5033 7.82438 29.9593 7.69638 30.2952 7.44038C30.6313 7.18438 30.7993 6.84038 30.7993 6.40838C30.7993 5.43238 30.2472 4.94438 29.1432 4.94438ZM30.9193 12.8164C30.9193 12.2724 30.7353 11.8484 30.3673 11.5444C30.0153 11.2404 29.5352 11.0884 28.9272 11.0884H23.6712V14.2804H29.1432C30.3272 14.2804 30.9193 13.7924 30.9193 12.8164Z" fill="white"/>
<path d="M55.8489 14.4484V18.1444C55.3049 18.1764 54.7529 18.1924 54.1929 18.1924C52.6729 18.1924 51.5049 17.8324 50.6889 17.1124C49.8729 16.3764 49.3609 15.2724 49.1529 13.8004C48.9609 12.9204 48.7609 12.4084 48.5529 12.2644C48.3609 12.1044 47.7369 12.0084 46.6809 11.9764H42.9609V18.0004H38.2569V1.20038H48.9129C51.1049 1.20038 52.7849 1.65638 53.9529 2.56838C55.1209 3.48038 55.7049 4.84038 55.7049 6.64838C55.7049 8.80838 54.6729 10.2404 52.6089 10.9444V11.0644C53.2169 11.4804 53.5769 12.0484 53.6889 12.7684C53.8489 13.8884 54.5689 14.4484 55.8489 14.4484ZM42.9609 4.89638V8.32838H48.9129C49.5689 8.32838 50.0809 8.18438 50.4489 7.89638C50.8169 7.59238 51.0009 7.16838 51.0009 6.62437C51.0009 6.08038 50.8169 5.65638 50.4489 5.35238C50.0809 5.04838 49.5689 4.89638 48.9129 4.89638H42.9609Z" fill="white"/>
</svg>
