<svg xmlns="http://www.w3.org/2000/svg" width="256" height="256" xmlns:xlink="http://www.w3.org/1999/xlink"><title>Icon_mobile_small</title><desc>Created with Sketch.</desc><defs><path id="a" d="M256 201c0 30.38-24.62 55-55 55H55c-30.38 0-55-24.62-55-55V55C0 24.62 24.62 0 55 0h146c30.38 0 55 24.62 55 55v146"/><mask id="b" width="256" height="256" x="0" y="0"><use xlink:href="#a"/></mask><linearGradient id="c" x1="50%" x2="50%" y1="32.059%" y2="68.513%"><stop stop-color="#0D67AF" offset="0%"/><stop stop-color="#EF4158" offset="100%"/></linearGradient></defs><g fill="none"><g><g transform="translate(-399 -374) translate(399 374)"><use fill="#fff" stroke="#BEBEBE" mask="url(#b)" xlink:href="#a"/><g><path fill="#EF3E58" d="M110.95 129.74h-19.6c-.2 0-.35.15-.36.33-.5 8.86-2.17 18.4-4.6 26.18-.02.1 0 .22.06.3.07.1.18.16.3.16h6.7c.15 0 .3-.1.34-.24 1.88-6 3.4-13.8 3.96-20.44h6.43v20.33c0 .2.15.36.35.36h6.4c.2 0 .35-.15.35-.35V130.1c0-.2-.16-.36-.35-.36"/><path fill="#EF3E58" d="M193.84 129.74h-6.4c-.2 0-.36.16-.36.36v20.3c-1.4.4-2.8.6-4.38.6-4.24 0-5.22-1.3-5.22-6.92V130.1c0-.2-.16-.36-.36-.36h-6.4c-.2 0-.35.16-.35.36v14.65c0 9.16 3.1 12.73 11.03 12.73 4.53 0 9.57-1.15 12.56-2.3.14-.05.23-.18.23-.32V130.1c0-.2-.17-.36-.36-.36"/><path fill="#EF3E58" d="M58.22 129.77h-6.5c-.16 0-.3.1-.34.27-1.03 4.04-3.1 10.8-5.87 17.86L39 129.97c-.05-.14-.18-.23-.33-.23h-6.58c-.12 0-.23.06-.3.15-.06.1-.08.2-.04.32l9.78 26.84c-1 2.05-1.93 3.76-2.82 5.4-.65 1.22-1.3 2.4-1.93 3.66-.05.1-.05.24 0 .35.08.1.2.17.32.17h7.12c.12 0 .24-.08.3-.2 1.2-2.32 2.7-5.54 4.1-8.84 4.15-9.77 7.5-18.98 9.96-27.38.03-.1 0-.22-.06-.32-.06-.08-.17-.13-.28-.13"/><path fill="#EF3E58" d="M81.53 150.43c-.03-.1-.1-.16-.2-.2-.07-.04-.17-.05-.26 0-1.56.56-4.5 1.03-6.52 1.03-4.46 0-6.6-1.2-6.6-8.04 0-5.47.67-8.04 6.6-8.04 1.68 0 3.24.24 5.22.8.17.06.34 0 .42-.16.73-1.4 1.63-3.1 2.63-5.18.05-.1.05-.2 0-.3-.03-.1-.1-.16-.2-.2-2.63-.83-5.75-1.3-8.55-1.3-9.34 0-13.5 4.4-13.5 14.28 0 10.02 4.16 14.5 13.5 14.5 2.34 0 6.95-.5 9.17-1.4.18-.06.27-.26.2-.44l-1.92-5.35"/><path fill="#EF3E58" d="M142.4 129.77h-6.5c-.15 0-.3.1-.34.27-1.03 4.05-3.1 10.8-5.86 17.86l-6.53-17.93c-.05-.14-.18-.23-.34-.23h-6.57c-.12 0-.23.06-.3.15-.06.1-.08.2-.04.32l9.77 26.84c-1.03 2.05-1.94 3.75-2.83 5.4-.65 1.2-1.28 2.4-1.93 3.66-.06.1-.05.24 0 .35.08.1.2.17.32.17h7.12c.13 0 .25-.08.3-.2 1.22-2.32 2.7-5.54 4.1-8.84 4.15-9.76 7.5-18.97 9.97-27.38.03-.1 0-.22-.05-.32-.07-.08-.18-.13-.3-.13"/><path fill="#EF3E58" d="M166.42 129.74h-18.94c-.2 0-.36.16-.36.36v26.25c0 .2.17.36.36.36h6.4c.2 0 .35-.15.35-.35v-20.33h9.9c.13 0 .26-.08.32-.2.75-1.8 1.52-3.67 2.3-5.6.04-.1.03-.23-.04-.32-.05-.1-.17-.16-.28-.16"/><path fill="#0F67B1" d="M65.8 111.88c-4.2 0-5.52-1.14-5.52-8.3 0-7.64 1.43-8.32 5.52-8.32 4.17 0 5.63.68 5.63 8.3 0 7.17-1.34 8.32-5.63 8.32m0-22.54c-9.24 0-12.84 3.96-12.84 14.13 0 10.3 3.6 14.33 12.84 14.33 9.3 0 12.94-4.02 12.94-14.33 0-10.17-3.63-14.13-12.94-14.13"/><path fill="#0F67B1" d="M104.26 110.8c-.03-.1-.1-.16-.18-.2-.1-.04-.2-.05-.28 0-1.56.56-4.48 1.03-6.52 1.03-4.46 0-6.58-1.2-6.58-8.04 0-5.48.65-8.05 6.58-8.05 1.68 0 3.25.24 5.23.82.17.04.34-.03.42-.18.75-1.4 1.64-3.1 2.65-5.2.04-.08.05-.2 0-.28-.04-.1-.12-.17-.2-.2-2.64-.84-5.75-1.32-8.56-1.32-9.33 0-13.5 4.4-13.5 14.3 0 10 4.17 14.48 13.5 14.48 2.35 0 6.97-.5 9.2-1.38.17-.07.26-.27.2-.45l-1.94-5.35"/><path fill="#0F67B1" d="M51 90.1H32.07c-.2 0-.36.17-.36.37v26.26c0 .2.17.35.37.35h6.4c.2 0 .35-.16.35-.35V96.4h9.9c.13 0 .26-.1.3-.22.77-1.78 1.54-3.65 2.3-5.58.06-.1.04-.23-.02-.33-.07-.1-.18-.16-.3-.16"/><path fill="url(#c)" d="M192.23 131.97c0-.13.02-.26.03-.4.02-.23.03-.47.05-.7.26-3.68.52-8.25.7-13.37 0-.13 0-.27 0-.4.13-3.52.2-7.28.2-11.18 0-3.9-.07-7.66-.2-11.17 0-.14 0-.28 0-.42-.18-5.12-.44-9.7-.7-13.36 0-.24-.02-.48-.04-.7 0-.14-.02-.28-.03-.4-.03-.38-.05-.74-.08-1.1 0-.15-.02-.3-.03-.44-.3-3.88-.55-6.27-.58-6.5-.04-.4-.08-.77-.14-1.15 0-.1-.03-.18-.04-.28-.1-.67-.22-1.34-.36-2.03-.02-.1-.04-.2-.06-.3-1.73-8.1-6.24-17-11.84-23.72-2.17-2.6-4.5-4.87-6.88-6.65-.24-.18-3-2.23-7.45-5.3-5.1-3.5-12.43-8.36-20.7-13.24-14.73-8.67-27.9-14.73-29.64-15.52 0 0 0 0-.02 0-.06-.04-.1-.07-.14-.08-3.87-1.75-8.62-2.9-13.75-3.4-.96-.1-1.95-.18-2.96-.22-.9-.04-1.8-.06-2.7-.06-.45 0-.9 0-1.35 0-6.76.16-13.13 1.45-18.07 3.68 0 0 0 0-.02 0-.78.36-14.12 6.43-29.24 15.3-.17.1-.35.2-.54.3C30.15 28.3 18 37.33 17.48 37.7c-3.8 2.83-7.2 6.4-10.26 11.04-.68 1.02-.75 3.65 2.3 3.65h7.65c3.3 0 4.08-2.02 7.77-4.68 4.13-2.97 12.17-9.03 27.02-17.78 10.7-6.3 20.73-11.25 25.57-13.56 0 0 .03-.02.04-.02.1-.04.17-.08.26-.12.03-.02.07-.04.1-.06.06-.02.1-.04.15-.07.08-.02.16-.06.24-.1.1-.04.18-.08.26-.12 1.25-.6 1.96-.9 2-.92 3.4-1.54 8.18-2.46 13.25-2.57.34-.02.67-.02 1.02-.02.34 0 .67 0 1 0 1.5.04 2.98.15 4.4.3 3.06.38 5.88 1.05 8.17 1.98.24.1.47.2.7.3 0 0 .14.06.37.16 2.25 1.04 14.72 6.87 28.23 14.82 7.95 4.7 15.1 9.43 20.05 12.83 4.28 2.96 6.9 4.9 6.97 4.95 1.9 1.42 3.8 3.38 5.56 5.65 4.52 5.8 8.17 13.65 8.8 19.76.02.06.28 2.54.58 6.6.02.28.04.55.06.83.02.2.03.4.04.6.03.34.05.7.08 1.07 0 .14.02.3.03.43 0 .25.02.5.04.75.03.5.06 1 .1 1.5 0 .32.03.63.05.96 0 .07 0 .15 0 .23.02.35.04.72.06 1.1.02.26.03.52.05.78.28 5.22.5 11.4.5 17.94 0 6.52-.22 12.72-.5 17.93 0 .27-.02.53-.04.8-.02.36-.04.73-.06 1.1 0 .07 0 .15 0 .23-.03.32-.05.64-.07.95-.03.5-.06 1-.1 1.5 0 .25-.03.5-.04.74-.02.15-.03.3-.04.43-.03.38-.05.74-.08 1.1 0 .2-.02.38-.04.57-.02.28-.04.56-.06.83-.3 4.07-.56 6.55-.57 6.6-.63 6.12-4.28 13.97-8.8 19.77-1.75 2.27-3.65 4.23-5.55 5.64-.06.05-2.7 2-6.97 4.96-4.95 3.4-12.1 8.15-20.05 12.83-13.5 7.95-25.98 13.77-28.24 14.8-.24.12-.37.18-.38.18-.23.1-.46.2-.7.3-2.3.93-5.1 1.6-8.17 1.96-1.42.17-2.9.28-4.4.3-.33.02-.66.02-1 .02-.34 0-.68 0-1.02 0-5.07-.12-9.85-1.04-13.26-2.58-.03 0-.74-.33-1.98-.92-.03 0-.04 0-.05-.02-.14-.06-.27-.13-.4-.2-.03 0-.05 0-.06-.02-.12-.05-.23-.1-.35-.16-.06-.02-.12-.05-.18-.08-.1-.04-.18-.1-.28-.14-.13-.05-.25-.1-.38-.17-.03-.02-.05-.03-.08-.04-5.07-2.44-14.66-7.22-24.88-13.24-14.85-8.75-22.9-14.8-27.02-17.78-3.7-2.66-4.47-4.67-7.77-4.67H9.5c-3.03 0-2.96 2.62-2.28 3.65 3.07 4.63 6.45 8.2 10.26 11.04.5.38 12.67 9.42 28.14 18.52.83.5 1.65.97 2.46 1.44 14.3 8.25 26.56 13.82 27.33 14.16.02 0 .02 0 .03.02 4.94 2.22 11.3 3.5 18.06 3.66.44 0 .9.02 1.34.02.9 0 1.8-.02 2.7-.06 1-.05 2-.12 2.97-.2 5.14-.5 9.9-1.68 13.76-3.42.03-.02.08-.04.15-.07.02 0 .02 0 .03 0 1.74-.8 14.9-6.86 29.64-15.53 8.27-4.87 15.6-9.72 20.7-13.24 4.44-3.06 7.2-5.1 7.44-5.3 2.4-1.77 4.73-4.05 6.9-6.64 5.6-6.75 10.1-15.64 11.84-23.75.02-.1.04-.2.06-.3.14-.67.26-1.35.36-2.02 0-.1.03-.2.04-.28.06-.38.1-.76.14-1.13.03-.25.28-2.64.58-6.5 0-.16.02-.3.03-.46.03-.35.05-.7.08-1.1" transform="translate(31.5 22)"/></g></g></g></g></svg>