<svg width="296" height="64" viewBox="0 0 296 64" fill="none" xmlns="http://www.w3.org/2000/svg">
<path d="M53.4463 14.5918H55.5162V20.2417H55.5501L60.1481 14.5918H62.5743L57.2977 20.9203L62.8627 27.5373H60.3517L55.5501 21.7856H55.5162V27.5373H53.4463V14.5918Z" fill="white"/>
<path d="M69.4289 27.9611C68.0715 31.6937 66.5785 32.1858 64.9497 32.1858C64.279 32.1959 63.6138 32.0629 62.9985 31.7955L63.5075 30.0989C63.9274 30.3161 64.3922 30.4323 64.8649 30.4382C65.9677 30.4382 66.8499 29.6917 67.5795 27.4521L63.4227 18.2393H65.6114L68.5127 25.0259L70.8031 18.2393H72.9409L69.4289 27.9611Z" fill="white"/>
<path d="M80.6097 23.1591C80.6097 21.666 80.1176 20.2918 78.4719 20.2918C77.6023 20.3311 76.7565 20.5878 76.0117 21.0383C76.0117 21.3097 76.0117 21.5642 76.0117 21.7848C76.0117 24.754 76.894 26.1113 78.3701 26.1113C79.8462 26.1113 80.6266 24.7879 80.6266 23.1591M73.9418 21.683C73.8356 19.7827 74.354 17.8998 75.4179 16.3216C76.5716 14.9473 77.912 14.7437 81.984 13.6748V15.5581C78.404 16.5252 77.3691 16.7118 76.7583 17.5771C76.4028 18.1428 76.1768 18.7801 76.0966 19.4434C76.9208 18.9576 77.8548 18.6891 78.8112 18.663C81.5259 18.663 82.6966 20.5971 82.6966 23.0234C82.7589 23.6236 82.6934 24.2303 82.5045 24.8035C82.3155 25.3766 82.0074 25.9033 81.6003 26.3488C81.1932 26.7944 80.6964 27.1487 80.1426 27.3885C79.5888 27.6283 78.9905 27.7481 78.387 27.7401C75.8081 27.7401 74.0097 26.0434 74.0097 21.6321" fill="white"/>
<path d="M88.4143 23.1593C87.8999 23.1466 87.3893 23.251 86.9212 23.4647C86.7144 23.5836 86.5446 23.7576 86.4308 23.9673C86.317 24.177 86.2636 24.4141 86.2765 24.6524C86.2682 24.8491 86.3023 25.0453 86.3764 25.2277C86.4506 25.4101 86.5631 25.5744 86.7063 25.7095C86.8494 25.8447 87.02 25.9475 87.2064 26.011C87.3928 26.0745 87.5906 26.0972 87.7865 26.0775C88.5462 26.0466 89.2667 25.7317 89.8055 25.1953V23.1593H88.4143ZM89.9582 26.5526C89.2402 27.2791 88.2649 27.6935 87.2436 27.7063C86.8544 27.7294 86.4647 27.6729 86.0981 27.5402C85.7315 27.4076 85.3959 27.2015 85.1116 26.9348C84.8274 26.668 84.6005 26.346 84.4449 25.9886C84.2893 25.6312 84.2082 25.2458 84.2066 24.856C84.1862 24.3272 84.3238 23.8043 84.6018 23.3541C84.8798 22.9039 85.2856 22.5466 85.7675 22.3279C86.5164 22.0023 87.3262 21.8403 88.1428 21.8529H89.8394V21.4626C89.8394 20.2411 89.076 19.766 87.9731 19.766C87.105 19.7696 86.2544 20.0101 85.513 20.4616L84.8004 19.1043C85.8432 18.4613 87.037 18.1043 88.2616 18.0693C90.569 18.0693 91.8585 19.1382 91.8585 21.4626V24.856C91.8151 25.7362 91.8721 26.6184 92.0281 27.4858H90.2636L89.9582 26.5526Z" fill="white"/>
<path d="M94.2681 18.2393H96.321V21.7004H100.257V18.2393H102.293V27.5369H100.257V23.4819H96.321V27.5369H94.2681V18.2393Z" fill="white"/>
<path d="M104.261 22.9553C104.243 22.3144 104.354 21.6763 104.589 21.0797C104.824 20.483 105.177 19.94 105.627 19.4834C106.078 19.0269 106.615 18.6662 107.209 18.4231C107.802 18.18 108.439 18.0595 109.08 18.0689C109.939 18.0558 110.787 18.2662 111.54 18.6797V20.3764C110.86 19.9496 110.068 19.7368 109.266 19.7656C108.857 19.7657 108.453 19.8518 108.08 20.0182C107.706 20.1846 107.372 20.4277 107.098 20.7316C106.825 21.0356 106.618 21.3936 106.492 21.7825C106.365 22.1715 106.322 22.5826 106.365 22.9892C106.365 25.0083 107.468 26.145 109.148 26.145C109.926 26.1405 110.689 25.9235 111.353 25.5173L111.947 26.9255C111.037 27.4766 109.99 27.759 108.927 27.7399C108.299 27.7657 107.674 27.6583 107.091 27.4246C106.508 27.191 105.981 26.8365 105.545 26.3844C105.109 25.9323 104.773 25.393 104.561 24.802C104.348 24.2109 104.264 23.5815 104.312 22.9553" fill="white"/>
<path d="M113.474 18.2388H115.527V22.0054H116.647C117.868 22.0054 117.835 19.9864 118.598 18.8496C118.778 18.5682 119.031 18.3407 119.329 18.1913C119.628 18.042 119.962 17.9763 120.295 18.0013C120.587 17.998 120.879 18.038 121.16 18.12V19.8167C120.997 19.7928 120.831 19.7928 120.668 19.8167C120.537 19.809 120.406 19.8345 120.287 19.8908C120.169 19.9472 120.066 20.0326 119.989 20.1391C119.497 20.8347 119.446 22.3108 118.581 22.8198C119.073 22.9725 119.362 23.3457 119.684 24.0074L121.381 27.5195H119.107L117.835 24.4995C117.512 23.8208 117.241 23.5663 116.969 23.5663H115.493V27.5195H113.474V18.2388Z" fill="white"/>
<path d="M122.958 18.2393H124.961V22.7524C124.961 23.4989 124.961 24.1606 124.961 24.7205C125.249 24.2284 125.656 23.5837 126.216 22.7863L129.287 18.2393H131.255V27.5369H129.287V23.0069C129.287 22.2603 129.287 21.6156 129.287 21.0557C129.016 21.5138 128.591 22.1925 128.048 22.9899L124.893 27.5369H122.958V18.2393Z" fill="white"/>
<path d="M134.852 13.7432H136.549C136.549 14.6254 136.922 15.4398 138.042 15.4398C139.161 15.4398 139.518 14.6763 139.518 13.7432H141.214C141.214 14.5891 140.878 15.4004 140.28 15.9986C139.682 16.5968 138.871 16.9329 138.025 16.9329C137.179 16.9329 136.367 16.5968 135.769 15.9986C135.171 15.4004 134.835 14.5891 134.835 13.7432M133.766 18.2393H135.768V22.7524C135.768 23.4989 135.768 24.1606 135.768 24.7205C136.057 24.2285 136.481 23.5838 137.024 22.7863L140.196 18.2393H142.148V27.537H140.146V23.0069C140.107 22.3571 140.107 21.7056 140.146 21.0557C139.874 21.5138 139.467 22.1925 138.907 22.9899L135.751 27.537H133.783L133.766 18.2393Z" fill="white"/>
<path d="M148.934 18.2393H155.466L154.855 20.0547H150.987V27.5369H148.934V18.2393Z" fill="white"/>
<path d="M163.458 22.8535C163.458 21.0042 162.592 19.6808 161.048 19.6808C159.504 19.6808 158.605 21.0042 158.605 22.8535C158.605 24.7029 159.487 26.0602 161.048 26.0602C162.609 26.0602 163.458 24.7199 163.458 22.8535ZM156.501 22.8535C156.447 22.2257 156.524 21.5934 156.727 20.9967C156.93 20.4001 157.254 19.8522 157.68 19.3877C158.106 18.9233 158.624 18.5524 159.201 18.2988C159.778 18.0451 160.401 17.9141 161.031 17.9141C161.662 17.9141 162.285 18.0451 162.862 18.2988C163.439 18.5524 163.957 18.9233 164.383 19.3877C164.808 19.8522 165.133 20.4001 165.336 20.9967C165.539 21.5934 165.616 22.2257 165.561 22.8535C165.616 23.4814 165.539 24.1137 165.336 24.7103C165.133 25.307 164.808 25.8549 164.383 26.3193C163.957 26.7838 163.439 27.1546 162.862 27.4083C162.285 27.662 161.662 27.793 161.031 27.793C160.401 27.793 159.778 27.662 159.201 27.4083C158.624 27.1546 158.106 26.7838 157.68 26.3193C157.254 25.8549 156.93 25.307 156.727 24.7103C156.524 24.1137 156.447 23.4814 156.501 22.8535Z" fill="white"/>
<path d="M167.071 22.9555C167.053 22.3146 167.164 21.6766 167.399 21.0799C167.634 20.4832 167.987 19.9402 168.437 19.4836C168.887 19.0271 169.425 18.6664 170.019 18.4233C170.612 18.1802 171.248 18.0597 171.89 18.0692C172.749 18.0536 173.597 18.2642 174.35 18.68V20.3766C173.684 19.9253 172.897 19.6884 172.093 19.6979C171.683 19.6954 171.278 19.7797 170.903 19.9452C170.528 20.1107 170.193 20.3538 169.919 20.6583C169.645 20.9629 169.438 21.322 169.313 21.7121C169.188 22.1022 169.146 22.5144 169.192 22.9216C169.192 24.9406 170.278 26.0774 171.974 26.0774C172.752 26.0687 173.514 25.8519 174.18 25.4496L174.757 26.8578C173.849 27.4513 172.787 27.7641 171.703 27.7571C171.075 27.7826 170.448 27.6752 169.864 27.4417C169.28 27.2082 168.753 26.854 168.315 26.4022C167.878 25.9505 167.541 25.4114 167.327 24.8203C167.112 24.2293 167.025 23.5996 167.071 22.9725" fill="white"/>
<path d="M181.272 27.9606C179.915 31.6932 178.422 32.1853 176.793 32.1853C176.122 32.1954 175.457 32.0624 174.842 31.795L175.351 30.0984C175.77 30.318 176.235 30.4343 176.708 30.4377C177.811 30.4377 178.693 29.6912 179.423 27.4516L175.249 18.1709H177.455L180.339 24.9575L182.629 18.1709H184.75L181.272 27.9606Z" fill="white"/>
<path d="M192.063 19.9359H190.197C189.944 22.0109 189.274 24.0134 188.229 25.8233H192.063V19.9359ZM185.429 25.8572H186.023C187.363 24.1606 188.008 22.2264 188.721 18.2393H194.099V25.8572H195.456V30.7945H193.556V27.5369H187.38V30.7945H185.463L185.429 25.8572Z" fill="white"/>
<path d="M201.004 23.1591C200.49 23.1464 199.979 23.2508 199.511 23.4645C199.302 23.5804 199.13 23.7538 199.015 23.9642C198.901 24.1746 198.849 24.4133 198.866 24.6522C198.855 24.8496 198.887 25.0472 198.96 25.2309C199.034 25.4147 199.146 25.5802 199.29 25.716C199.434 25.8517 199.605 25.9544 199.793 26.0168C199.981 26.0793 200.18 26.0999 200.376 26.0774C201.136 26.0464 201.857 25.7315 202.395 25.1951V23.1591H201.004ZM202.531 26.5524C202.177 26.9144 201.755 27.2027 201.289 27.4007C200.823 27.5988 200.323 27.7026 199.816 27.7061C199.428 27.7293 199.039 27.6727 198.674 27.5399C198.308 27.407 197.973 27.2007 197.69 26.9337C197.407 26.6667 197.182 26.3446 197.028 25.9872C196.875 25.6298 196.796 25.2448 196.796 24.8558C196.776 24.327 196.914 23.8042 197.192 23.3539C197.47 22.9037 197.875 22.5464 198.357 22.3277C199.106 22.0021 199.916 21.8401 200.733 21.8527H202.429V21.4624C202.429 20.2409 201.666 19.7658 200.563 19.7658C199.689 19.7671 198.833 20.0077 198.086 20.4614L197.39 19.1041C198.452 18.4887 199.658 18.1667 200.885 18.1709C203.176 18.1709 204.482 19.2398 204.482 21.5643V24.8558C204.439 25.736 204.496 26.6182 204.652 27.4856H202.955L202.531 26.5524Z" fill="white"/>
<path d="M210.217 26.0269C212.066 26.0269 213.033 24.7714 213.033 22.8372C213.082 22.4339 213.041 22.0248 212.913 21.6393C212.785 21.2538 212.572 20.9016 212.292 20.6079C212.011 20.3142 211.669 20.0864 211.289 19.9409C210.91 19.7954 210.503 19.7357 210.098 19.7662C209.679 19.7608 209.262 19.818 208.86 19.9359V25.7724C209.282 25.979 209.747 26.0836 210.217 26.0778M206.824 18.6464C207.913 18.2572 209.06 18.0563 210.217 18.0526C210.877 17.9796 211.544 18.054 212.171 18.2705C212.799 18.487 213.37 18.8403 213.844 19.3046C214.318 19.769 214.683 20.3329 214.913 20.9555C215.142 21.5782 215.231 22.2441 215.171 22.905C215.212 23.5487 215.117 24.1938 214.893 24.7984C214.668 25.403 214.319 25.9536 213.868 26.4145C213.417 26.8753 212.874 27.2361 212.274 27.4733C211.674 27.7105 211.031 27.8189 210.387 27.7914C209.877 27.7896 209.371 27.6977 208.894 27.5199V32.2366H206.858L206.824 18.6464Z" fill="white"/>
<path d="M216.648 22.9555C216.629 22.3146 216.741 21.6766 216.975 21.0799C217.21 20.4832 217.563 19.9402 218.014 19.4836C218.464 19.0271 219.002 18.6664 219.595 18.4233C220.188 18.1802 220.825 18.0597 221.466 18.0692C222.325 18.0536 223.174 18.2642 223.926 18.68V20.3766C223.261 19.9253 222.473 19.6884 221.67 19.6979C221.259 19.6957 220.853 19.78 220.478 19.9454C220.102 20.1107 219.766 20.3535 219.49 20.6577C219.215 20.9619 219.007 21.3207 218.879 21.7108C218.752 22.1009 218.708 22.5135 218.751 22.9216C218.751 24.9406 219.854 26.0774 221.551 26.0774C222.324 26.0706 223.08 25.8536 223.74 25.4496L224.333 26.8578C223.418 27.4481 222.351 27.7605 221.262 27.7571C220.635 27.7829 220.009 27.6755 219.426 27.4418C218.843 27.2082 218.316 26.8537 217.88 26.4016C217.444 25.9495 217.109 25.4102 216.896 24.8191C216.684 24.2281 216.599 23.5987 216.648 22.9725" fill="white"/>
<path d="M227.964 19.9698H225.08V18.2393H233.394L232.834 19.9698H230.017V27.5369H227.964V19.9698Z" fill="white"/>
<path d="M238.636 26.0439C239.756 26.0439 240.333 25.6197 240.333 24.7883C240.333 23.957 239.79 23.5328 238.789 23.5328H236.889V26.0439H238.636ZM238.636 22.1246C239.62 22.1246 240.129 21.7344 240.129 20.9369C240.129 20.1395 239.569 19.7662 238.433 19.7662H236.838V22.1585L238.636 22.1246ZM234.954 18.2393H238.5C241.266 18.2393 242.148 19.5457 242.148 20.7333C242.163 21.1968 242.015 21.6508 241.73 22.0165C241.445 22.3822 241.04 22.6365 240.587 22.7354C241.077 22.831 241.517 23.0961 241.83 23.4839C242.144 23.8718 242.31 24.3577 242.301 24.8562C242.301 26.1457 241.402 27.503 238.585 27.503H234.87L234.954 18.2393Z" fill="white"/>
<path d="M249.749 21.9382C249.749 20.7505 249.138 19.5968 247.832 19.5968C247.545 19.6136 247.265 19.6883 247.009 19.8165C246.752 19.9446 246.524 20.1236 246.338 20.3425C246.153 20.5614 246.013 20.8157 245.929 21.09C245.844 21.3643 245.816 21.6528 245.847 21.9382H249.749ZM245.864 23.3803C245.849 23.7452 245.911 24.1091 246.045 24.4486C246.18 24.7881 246.384 25.0956 246.644 25.3514C246.905 25.6072 247.216 25.8055 247.558 25.9336C247.9 26.0616 248.265 26.1166 248.629 26.095C249.452 26.0981 250.26 25.8814 250.971 25.4672L251.582 26.8755C250.63 27.4504 249.537 27.75 248.426 27.7407C247.785 27.7762 247.145 27.6722 246.549 27.4358C245.952 27.1994 245.415 26.8363 244.972 26.3716C244.53 25.9069 244.194 25.3517 243.988 24.7444C243.782 24.1371 243.71 23.4922 243.777 22.8544C243.777 20.0549 245.338 18.002 247.849 18.002C250.36 18.002 251.836 19.8852 251.836 22.8883V23.3803H245.864Z" fill="white"/>
<path d="M253.855 18.2393H255.908V21.7004H259.827V18.2393H261.88V27.5369H259.827V23.4819H255.908V27.5369H253.855V18.2393Z" fill="white"/>
<path d="M264.323 18.2393H266.376V21.7004H270.312V18.2393H272.348V27.5369H270.312V23.4819H266.376V27.5369H264.323V18.2393Z" fill="white"/>
<path d="M283.089 18.2393H285.125V27.5369H283.089V18.2393ZM277.812 25.9421C279.509 25.9421 279.797 25.3313 279.797 24.5678C279.797 23.8043 279.407 23.2105 277.812 23.2105C277.496 23.1858 277.178 23.1858 276.862 23.2105V25.8742L277.812 25.9421ZM274.809 18.2393H276.896V21.6326C277.241 21.6078 277.586 21.6078 277.931 21.6326C280.9 21.6326 281.884 23.0069 281.884 24.5678C281.884 26.1287 280.951 27.5709 277.897 27.5709H274.843L274.809 18.2393Z" fill="white"/>
<path d="M288.67 13.7432H290.367C290.367 14.6254 290.757 15.4398 291.877 15.4398C292.997 15.4398 293.353 14.6763 293.353 13.7432H295.05C295.05 14.5891 294.714 15.4004 294.116 15.9986C293.517 16.5968 292.706 16.9329 291.86 16.9329C291.014 16.9329 290.203 16.5968 289.605 15.9986C289.007 15.4004 288.67 14.5891 288.67 13.7432ZM287.602 18.2393H289.604V22.7524C289.604 23.4989 289.604 24.1606 289.604 24.7205C289.892 24.2285 290.316 23.5838 290.859 22.7863L294.032 18.2393H296V27.537H293.981V23.0069C293.981 22.2604 293.981 21.6156 293.981 21.0557C293.693 21.5138 293.285 22.1925 292.742 22.9899L289.57 27.537H287.602V18.2393Z" fill="white"/>
<path d="M56.7719 40.7539C56.2553 40.7368 55.7424 40.8476 55.2789 41.0763C55.0707 41.1894 54.8993 41.3597 54.785 41.5672C54.6708 41.7747 54.6184 42.0106 54.6341 42.247C54.6233 42.4451 54.6556 42.6432 54.7286 42.8277C54.8016 43.0121 54.9137 43.1786 55.0572 43.3156C55.2007 43.4527 55.3721 43.557 55.5597 43.6215C55.7474 43.686 55.9467 43.709 56.1441 43.6892C56.9039 43.6582 57.6243 43.3434 58.1632 42.8069V40.7031L56.7719 40.7539ZM58.2989 44.1473C57.9467 44.5057 57.5269 44.7907 57.0639 44.9858C56.6008 45.1809 56.1037 45.2823 55.6012 45.284C55.2028 45.3104 54.8032 45.2529 54.4285 45.115C54.0537 44.9771 53.7121 44.7621 53.4258 44.4838C53.1394 44.2054 52.9148 43.87 52.7664 43.4993C52.6179 43.1286 52.5491 42.7309 52.5642 42.3318C52.5427 41.805 52.68 41.284 52.9584 40.8362C53.2367 40.3884 53.6432 40.0346 54.1251 39.8208C54.8702 39.4814 55.6819 39.3133 56.5004 39.3288H58.1971V38.9216C58.1971 37.7 57.4336 37.2249 56.3308 37.2249C55.4606 37.2357 54.6078 37.4693 53.8537 37.9036L53.158 36.5462C54.2217 35.9376 55.4276 35.6215 56.6531 35.6301C58.9436 35.6301 60.25 36.682 60.25 39.0234V42.6033C60.2058 43.4835 60.2627 44.3659 60.4197 45.2331H58.7231L58.2989 44.1473Z" fill="white"/>
<path d="M62.6255 35.834H69.1576L68.5468 37.6324H64.6784V45.1316H62.6255V35.834Z" fill="white"/>
<path d="M74.0437 43.6038C75.8931 43.6038 76.8601 42.3483 76.8601 40.431C76.92 40.0225 76.8871 39.6058 76.7639 39.2118C76.6406 38.8177 76.4302 38.4565 76.1482 38.155C75.8662 37.8534 75.5199 37.6193 75.135 37.4699C74.7501 37.3206 74.3365 37.2598 73.9249 37.2922C73.5052 37.2935 73.0879 37.3564 72.6864 37.4789V43.3153C73.1127 43.5084 73.5757 43.6068 74.0437 43.6038ZM70.6504 36.1724C71.7423 35.7957 72.8886 35.6009 74.0437 35.5956C74.7033 35.5225 75.3709 35.597 75.9982 35.8135C76.6255 36.03 77.1968 36.3832 77.6709 36.8476C78.145 37.3119 78.51 37.8758 78.7395 38.4985C78.969 39.1212 79.0573 39.787 78.9979 40.448C79.0365 41.0903 78.9398 41.7335 78.7142 42.3361C78.4885 42.9387 78.1389 43.4872 77.6879 43.9461C77.237 44.4051 76.6947 44.7643 76.0962 45.0005C75.4977 45.2367 74.8562 45.3447 74.2134 45.3174C73.7053 45.313 73.2012 45.227 72.7203 45.0629V49.7796H70.6843L70.6504 36.1724Z" fill="white"/>
<path d="M84.665 40.754C84.1484 40.7369 83.6355 40.8476 83.172 41.0764C82.9638 41.1894 82.7925 41.3598 82.6782 41.5673C82.5639 41.7748 82.5115 42.0107 82.5273 42.2471C82.5135 42.4459 82.5437 42.6454 82.6157 42.8312C82.6877 43.0171 82.7997 43.1848 82.9439 43.3225C83.088 43.4601 83.2607 43.5644 83.4497 43.6278C83.6387 43.6911 83.8393 43.7121 84.0373 43.6892C84.797 43.6583 85.5175 43.3434 86.0563 42.807V40.7031L84.665 40.754ZM86.192 44.1473C85.8373 44.507 85.4147 44.7927 84.9487 44.9878C84.4827 45.183 83.9826 45.2837 83.4774 45.2841C83.0797 45.3107 82.6809 45.2532 82.3069 45.1152C81.933 44.9771 81.5924 44.7618 81.3074 44.4832C81.0223 44.2045 80.7993 43.8689 80.6528 43.4982C80.5064 43.1275 80.4398 42.7301 80.4574 42.3319C80.4358 41.8051 80.5732 41.284 80.8515 40.8363C81.1299 40.3885 81.5364 40.0347 82.0183 39.8209C82.7633 39.4815 83.575 39.3133 84.3936 39.3288H86.0902V38.9216C86.0902 37.7 85.3268 37.225 84.2239 37.225C83.3529 37.2295 82.4985 37.4636 81.7468 37.9036L81.0512 36.5463C82.1143 35.9361 83.3206 35.6199 84.5463 35.6301C86.8368 35.6301 88.1432 36.682 88.1432 39.0234V42.6034C88.099 43.4836 88.1559 44.366 88.3129 45.2332H86.6162L86.192 44.1473Z" fill="white"/>
<path d="M93.8778 43.6039C95.7272 43.6039 96.6943 42.3484 96.6943 40.4312C96.7541 40.0227 96.7212 39.6059 96.598 39.2119C96.4747 38.8179 96.2643 38.4567 95.9823 38.1551C95.7003 37.8536 95.354 37.6194 94.9691 37.4701C94.5842 37.3207 94.1706 37.26 93.759 37.2924C93.3393 37.2937 92.922 37.3566 92.5205 37.479V43.3155C92.9468 43.5085 93.4098 43.6069 93.8778 43.6039ZM90.4845 36.1726C91.5764 35.7959 92.7227 35.601 93.8778 35.5957C94.5307 35.5361 95.1887 35.6205 95.8055 35.843C96.4222 36.0656 96.9825 36.4207 97.4469 36.8835C97.9113 37.3463 98.2685 37.9054 98.4932 38.5214C98.7178 39.1373 98.8046 39.795 98.7472 40.4481C98.7858 41.0904 98.6891 41.7337 98.4634 42.3362C98.2378 42.9388 97.8882 43.4873 97.4372 43.9463C96.9862 44.4052 96.444 44.7644 95.8454 45.0006C95.2469 45.2369 94.6055 45.3448 93.9626 45.3175C93.4545 45.3131 92.9505 45.2272 92.4696 45.063V49.7797H90.4336L90.4845 36.1726Z" fill="white"/>
<path d="M100.8 35.834H102.853V39.2782H106.772V35.834H108.825V45.1316H106.772V41.0766H102.853V45.1316H100.8V35.834Z" fill="white"/>
<path d="M119.548 35.8334H121.601V45.1141H119.548V35.8334ZM114.288 43.5192C115.985 43.5192 116.273 42.9084 116.273 42.1449C116.273 41.3814 115.883 40.7876 114.288 40.7876H113.321V43.5192H114.288ZM111.285 35.8164H113.321V39.2097H114.356C117.325 39.2097 118.309 40.584 118.309 42.128C118.309 43.6719 117.393 45.131 114.322 45.131H111.285V35.8164Z" fill="white"/>
<path d="M125.13 31.3203H126.827C126.827 32.2026 127.2 33.017 128.32 33.017C129.44 33.017 129.796 32.2365 129.796 31.3203H131.493C131.434 32.1283 131.071 32.884 130.478 33.4356C129.885 33.9873 129.105 34.2939 128.295 34.2939C127.484 34.2939 126.704 33.9873 126.111 33.4356C125.518 32.884 125.155 32.1283 125.096 31.3203M124.044 35.8334H126.046V40.3465C126.046 41.093 126.046 41.7378 126.046 42.3146C126.352 41.8226 126.759 41.1779 127.319 40.3635L130.475 35.8334H132.443V45.1141H130.424V40.601C130.386 39.9455 130.386 39.2884 130.424 38.6329C130.152 39.108 129.728 39.7696 129.185 40.584L126.013 45.1141H124.078L124.044 35.8334Z" fill="white"/>
<path d="M144.2 45.5553C142.843 49.288 141.35 49.78 139.721 49.78C139.05 49.7901 138.385 49.6571 137.77 49.3898L138.279 47.6931C138.703 47.8973 139.166 48.0073 139.636 48.0155C140.739 48.0155 141.621 47.2689 142.351 45.0294L138.194 35.7656H140.383L143.284 42.6371L145.575 35.7656H147.695L144.2 45.5553Z" fill="white"/>
<path d="M149.155 35.834H151.191V39.2782H155.127V35.834H157.18V45.1316H155.127V41.0766H151.191V45.1316H149.155V35.834Z" fill="white"/>
<path d="M159.623 35.834H161.642V40.3471C161.642 41.0936 161.642 41.7383 161.642 42.3152C161.947 41.8232 162.355 41.1784 162.898 40.364L166.07 35.834H168.038V45.1147H166.036V40.6016C166.036 39.855 166.036 39.2103 166.036 38.6335C165.748 39.1085 165.341 39.7702 164.798 40.5846L161.523 45.1147H159.555L159.623 35.834Z" fill="white"/>
<path d="M174.231 43.6216C175.351 43.6216 175.928 43.2144 175.928 42.3661C175.928 41.5178 175.402 41.1106 174.401 41.1106H172.501V43.6216H174.231ZM174.129 39.7193C175.114 39.7193 175.623 39.3291 175.623 38.5147C175.623 37.7003 175.215 37.327 173.926 37.327H172.348V39.7193H174.129ZM170.465 35.834H173.994C176.776 35.834 177.659 37.1234 177.659 38.3281C177.67 38.7908 177.521 39.2431 177.236 39.6081C176.951 39.9731 176.549 40.2283 176.098 40.3301C176.581 40.4287 177.015 40.6928 177.324 41.0768C177.634 41.4608 177.8 41.9407 177.794 42.434C177.794 43.7234 176.895 45.0807 174.096 45.0807H170.38L170.465 35.834Z" fill="white"/>
<path d="M185.378 39.515C185.378 38.3443 184.767 37.1736 183.444 37.1736C183.158 37.1927 182.879 37.2689 182.624 37.3979C182.368 37.5268 182.141 37.7058 181.956 37.9241C181.771 38.1425 181.631 38.3959 181.546 38.6691C181.461 38.9424 181.431 39.23 181.459 39.515H185.378ZM181.493 40.9741C181.478 41.3389 181.54 41.7028 181.674 42.0423C181.809 42.3818 182.013 42.6894 182.273 42.9451C182.534 43.2009 182.845 43.3992 183.187 43.5273C183.529 43.6554 183.894 43.7104 184.258 43.6887C185.08 43.687 185.887 43.4706 186.6 43.061L187.211 44.4522C186.256 45.0353 185.156 45.3354 184.038 45.3175C183.4 45.353 182.761 45.2494 182.167 45.0139C181.573 44.7784 181.037 44.4165 180.596 43.9534C180.156 43.4902 179.821 42.9369 179.616 42.3317C179.41 41.7264 179.339 41.0838 179.406 40.4481C179.406 37.6317 180.95 35.5957 183.478 35.5957C186.006 35.5957 187.465 37.479 187.465 40.4821V40.9741H181.493Z" fill="white"/>
<path d="M192.809 43.6041C194.659 43.6041 195.626 42.3485 195.626 40.4313C195.686 40.0228 195.653 39.6061 195.529 39.2121C195.406 38.818 195.196 38.4568 194.914 38.1553C194.632 37.8537 194.286 37.6196 193.901 37.4702C193.516 37.3208 193.102 37.2601 192.691 37.2925C192.271 37.2913 191.853 37.3542 191.452 37.4791V43.3156C191.878 43.5102 192.341 43.6087 192.809 43.6041ZM189.416 36.1727C190.509 35.7993 191.655 35.6045 192.809 35.5959C193.468 35.5224 194.135 35.5966 194.762 35.8132C195.388 36.0298 195.959 36.3834 196.432 36.8481C196.905 37.3128 197.268 37.8771 197.495 38.4998C197.723 39.1226 197.809 39.7882 197.747 40.4483C197.788 41.0897 197.693 41.7326 197.47 42.3352C197.246 42.9377 196.898 43.4865 196.448 43.9458C195.999 44.405 195.457 44.7645 194.86 45.0009C194.262 45.2372 193.621 45.3452 192.979 45.3177C192.471 45.3132 191.967 45.2273 191.486 45.0632V49.7799H189.433L189.416 36.1727Z" fill="white"/>
<path d="M199.24 40.5327C199.23 39.6768 199.445 38.8333 199.864 38.0867C200.282 37.3401 200.89 36.7165 201.625 36.2784C202.36 35.8403 203.198 35.6031 204.054 35.5904C204.909 35.5777 205.754 35.7901 206.502 36.2062V37.9029C205.841 37.4394 205.052 37.196 204.245 37.2072C203.836 37.2074 203.432 37.2934 203.058 37.4599C202.685 37.6263 202.35 37.8693 202.077 38.1733C201.803 38.4772 201.597 38.8353 201.47 39.2242C201.344 39.6131 201.301 40.0242 201.344 40.4309C201.344 42.4499 202.447 43.5867 204.126 43.5867C204.902 43.5775 205.662 43.367 206.332 42.9759L206.926 44.3841C206.009 44.9684 204.942 45.2748 203.855 45.2663C203.226 45.2949 202.599 45.1894 202.015 44.9567C201.431 44.724 200.903 44.3696 200.466 43.9169C200.029 43.4642 199.694 42.9238 199.483 42.3315C199.271 41.7392 199.189 41.1086 199.24 40.4818" fill="white"/>
<path d="M208.453 35.834H210.455V40.3471C210.455 41.0936 210.455 41.7383 210.455 42.3152C210.743 41.8232 211.167 41.1784 211.71 40.364L214.883 35.834H216.834V45.1147H214.798V40.6016C214.76 39.9461 214.76 39.289 214.798 38.6335C214.527 39.1085 214.119 39.7702 213.559 40.5846L210.404 45.1147H208.436L208.453 35.834Z" fill="white"/>
<path d="M221.381 37.5476H218.497V35.834H226.811L226.234 37.5476H223.434V45.1316H221.381V37.5476Z" fill="white"/>
<path d="M233.784 39.515C233.784 38.3443 233.173 37.1736 231.867 37.1736C231.58 37.1903 231.3 37.2651 231.043 37.3933C230.787 37.5214 230.559 37.7004 230.373 37.9193C230.187 38.1382 230.048 38.3925 229.964 38.6668C229.879 38.941 229.851 39.2296 229.882 39.515H233.784ZM229.899 40.9741C229.884 41.3389 229.946 41.7028 230.08 42.0423C230.214 42.3818 230.418 42.6894 230.679 42.9451C230.94 43.2009 231.251 43.3992 231.593 43.5273C231.935 43.6554 232.3 43.7104 232.664 43.6887C233.487 43.6919 234.295 43.4751 235.006 43.061L235.616 44.4522C234.668 45.0348 233.573 45.335 232.461 45.3175C231.822 45.3527 231.183 45.249 230.588 45.0136C229.993 44.7781 229.456 44.4166 229.014 43.9538C228.573 43.4911 228.236 42.938 228.029 42.3328C227.821 41.7277 227.747 41.0847 227.812 40.4481C227.812 37.6317 229.373 35.5957 231.884 35.5957C234.395 35.5957 235.871 37.479 235.871 40.4821V40.9741H229.899Z" fill="white"/>
<path d="M239.96 37.5476H237.075V35.834H245.389L244.812 37.5476H242.012V45.1316H239.96V37.5476Z" fill="white"/>
<path d="M8.67165 15.8807L17.4094 7.12594L20.8027 10.5193L5.12565 26.1963C5.05506 25.6336 5.02106 25.0668 5.02385 24.4997C5.01912 22.8767 5.33606 21.2689 5.95635 19.7691C6.57664 18.2694 7.48798 16.9074 8.63772 15.7619M27.6572 17.6452L10.4022 35.0359L8.97705 33.6277L8.67165 33.3392C8.10255 32.7521 7.58593 32.1162 7.1277 31.439L24.4336 14.1331L26.1302 15.8298C26.7139 16.3977 27.2318 17.0294 27.6742 17.7131M26.1642 33.3392L17.4264 42.094L14.0331 38.7007L29.7271 23.0236C29.9618 24.901 29.7626 26.8073 29.1449 28.5956C28.5272 30.384 27.5075 32.0068 26.1642 33.3392ZM5.43104 37.2416L17.4603 49.2539L29.6423 37.038L30.3719 36.2914C33.2278 33.1105 34.8173 28.9922 34.8392 24.7174C34.8611 20.4425 33.3138 16.3082 30.4906 13.0982L17.4264 0L5.09171 12.3007C1.8312 15.5675 0 19.9945 0 24.61C0 29.2255 1.8312 33.6524 5.09171 36.9192L5.41408 37.2416" fill="white"/>
<path d="M34.4946 35.7152C33.8207 38.552 32.4504 41.176 30.5075 43.3502L29.7779 44.1136L17.596 56.3296L5.56668 44.3003C5.45084 44.2015 5.34304 44.0938 5.24431 43.9779C2.96105 41.7046 1.36206 38.8358 0.629415 35.6982H0.425815C-0.0673066 38.4643 0.113134 41.3085 0.951867 43.9901C1.7906 46.6717 3.26294 49.1117 5.24431 51.1039L5.56668 51.4262L17.596 63.4385L29.7779 51.2226L30.5075 50.4761C32.2811 48.4958 33.579 46.1367 34.3024 43.5786C35.0257 41.0205 35.1553 38.331 34.6813 35.7152H34.4946Z" fill="white"/>
</svg>
