<svg width="35" height="64" viewBox="0 0 35 64" fill="none" xmlns="http://www.w3.org/2000/svg">
<path fill-rule="evenodd" clip-rule="evenodd" d="M17.4603 49.2539L5.43104 37.2416H5.41408L5.09171 36.9192C1.8312 33.6524 0 29.2255 0 24.61C0 19.9945 1.8312 15.5675 5.09171 12.3007L17.4264 0L30.4906 13.0982C33.3138 16.3082 34.8611 20.4425 34.8392 24.7174C34.8173 28.9922 33.2278 33.1105 30.3719 36.2914L29.6423 37.038L17.4603 49.2539ZM17.4094 7.12594L8.67165 15.8807L8.63772 15.7619C7.48798 16.9074 6.57664 18.2694 5.95635 19.7691C5.33606 21.2689 5.01912 22.8767 5.02385 24.4997C5.02106 25.0668 5.05506 25.6336 5.12565 26.1963L20.8027 10.5193L17.4094 7.12594ZM27.6408 17.6618L10.4022 35.0359L8.97705 33.6277L8.67165 33.3392C8.10255 32.7521 7.58593 32.1162 7.1277 31.439L24.4336 14.1331L26.1302 15.8298C26.6992 16.3834 27.2058 16.9978 27.6408 17.6618ZM17.4264 42.094L26.1642 33.3392C27.5075 32.0068 28.5272 30.384 29.1449 28.5956C29.7626 26.8073 29.9618 24.901 29.7271 23.0236L14.0331 38.7007L17.4264 42.094Z" fill="white"/>
<path d="M30.5075 43.3502C32.4504 41.176 33.8207 38.552 34.4946 35.7152H34.6813C35.1553 38.331 35.0257 41.0205 34.3024 43.5786C33.579 46.1367 32.2811 48.4958 30.5075 50.4761L29.7779 51.2226L17.596 63.4385L5.24431 51.1039C3.26294 49.1117 1.7906 46.6717 0.951867 43.9901C0.113134 41.3085 -0.0673066 38.4643 0.425815 35.6982H0.629415C1.36206 38.8358 2.96105 41.7046 5.24431 43.9779C5.34304 44.0938 5.45084 44.2015 5.56668 44.3003L17.596 56.3296L29.7779 44.1136L30.5075 43.3502Z" fill="white"/>
</svg>
