<svg width="24" height="25" viewBox="0 0 24 25" fill="none" xmlns="http://www.w3.org/2000/svg">
<path fill-rule="evenodd" clip-rule="evenodd" d="M11.9997 0L12.584 0.738845L11.9996 1.51631L11.4153 0.738845L11.9997 0ZM5.01085 6.37715C5.20561 5.45924 4.39892 5.93922 4.18065 6.11098C4.44673 5.35215 4.18101 5.06266 3.95892 4.8207C3.81971 4.66903 3.69764 4.53604 3.73447 4.31783C3.77529 4.07567 4.10861 4.02649 4.43145 3.97884C4.63614 3.94864 4.83661 3.91906 4.95565 3.84131C5.10082 3.74657 5.25308 3.57877 5.40637 3.40984C5.8279 2.94528 6.25723 2.47214 6.56845 3.48605C5.77769 4.24772 6.23808 5.36877 7.2421 5.36877C7.2421 5.36877 7.24765 5.53319 7.23879 5.54623C6.04078 5.48556 5.62318 4.57252 5.84199 3.84139C5.88081 3.71208 4.61361 3.70881 4.61361 4.53133C4.61361 4.8043 4.79961 5.00611 4.98734 5.2098C5.17861 5.41733 5.37168 5.6268 5.37168 5.91548C5.37168 6.18184 5.09526 6.37715 5.01085 6.37715ZM18.1573 3.84139C18.1184 3.71208 19.3857 3.70881 19.3857 4.53133C19.3857 4.8043 19.1997 5.00611 19.0119 5.2098C18.8207 5.41733 18.6276 5.6268 18.6276 5.91548C18.6276 6.18184 18.904 6.37715 18.9888 6.37715C18.7935 5.45896 19.6008 5.93951 19.8189 6.11113C19.5526 5.35212 19.8184 5.06256 20.0405 4.82062C20.1798 4.66895 20.3018 4.536 20.2648 4.31783C20.2239 4.07572 19.8906 4.02652 19.5677 3.97888C19.3631 3.94868 19.1626 3.9191 19.0436 3.84139C18.8985 3.74665 18.7462 3.57885 18.5929 3.4099C18.1714 2.94533 17.742 2.47217 17.4308 3.48613C18.222 4.24772 17.7616 5.36886 16.7572 5.36886C16.7572 5.36886 16.7516 5.53319 16.7608 5.54623C17.9588 5.48548 18.3764 4.57243 18.1573 3.84139ZM15.0518 6.16372C16.3029 6.15939 17.4825 6.15531 17.6316 6.98256C17.684 7.27235 17.5497 7.71402 17.4045 7.84103C17.3785 7.74921 17.2431 7.44895 16.8153 7.38167C14.654 7.04306 12.8497 10.4968 14.4788 11.8932C14.5033 11.9145 14.4893 11.9536 14.4562 11.9536H9.57291C9.5394 11.9536 9.52533 11.9145 9.55016 11.8931C11.1789 10.4967 9.37454 7.04289 7.21339 7.3815C6.78577 7.44878 6.65013 7.74912 6.62415 7.84094C6.47899 7.71394 6.34459 7.27261 6.39656 6.98282C6.54597 6.15556 7.7257 6.15962 8.97678 6.16393C9.79563 6.16675 10.645 6.16967 11.2561 5.93968C11.2862 6.33862 10.7805 6.97793 10.2974 7.21442C11.1233 7.95773 11.8649 9.45542 12.014 11.2851C12.1638 9.45542 12.9054 7.95773 13.7313 7.21434C13.2481 6.97784 12.7429 6.33854 12.7724 5.93951C13.3836 6.1695 14.233 6.16656 15.0518 6.16372ZM15.2092 8.16076C15.5188 8.06174 16.0584 8.05393 16.4336 8.39503C16.4336 8.03033 16.1295 7.70639 16.0235 7.6652C15.8845 7.69086 15.4119 7.90264 15.2092 8.16076ZM7.58208 8.39503C7.95763 8.05393 8.49738 8.06174 8.80649 8.16076C8.60456 7.90264 8.13118 7.69086 7.99247 7.6652C7.88654 7.70639 7.58208 8.03033 7.58208 8.39503ZM15.92 2.9728L15.5045 2.4478L15.0893 2.9728L15.5045 3.48596L15.92 2.9728ZM18.7641 17.5717L19.2908 18.1498L18.7641 18.6568L18.2372 18.1497L18.7641 17.5717ZM8.91035 2.9728L8.4949 2.4478L8.0797 2.9728L8.49498 3.48596L8.91035 2.9728ZM9.2701 5.54632H7.72022C7.71558 5.53979 7.44816 5.16324 7.38072 4.97609C7.13634 4.29637 7.44834 3.97947 7.905 3.97947L8.49507 4.53382L9.08514 3.9793C9.54188 3.9793 9.85388 4.29629 9.60949 4.97592C9.57838 5.06285 9.50389 5.19045 9.43272 5.30287C9.98273 5.22443 10.6847 4.83399 10.839 3.99766C10.839 3.99766 10.4322 3.32824 10.3307 3.05733C9.96387 2.0831 10.4318 1.68493 11.1162 1.68493L11.9998 2.76187L12.8834 1.68493C13.5678 1.68493 14.0358 2.0831 13.6695 3.05733C13.5673 3.32824 13.161 3.99757 13.161 3.99757C13.3149 4.83399 14.017 5.22443 14.5671 5.30278C14.4962 5.19054 14.4214 5.06285 14.3901 4.97601C14.1453 4.29629 14.4581 3.97938 14.9146 3.97938L15.5045 4.53373L16.0945 3.97921C16.5509 3.97921 16.8638 4.29629 16.619 4.97592C16.5509 5.16479 16.2798 5.54623 16.2798 5.54623H14.7298C13.4262 5.54623 12.8401 4.71685 12.6629 3.99757H11.3368C11.1596 4.71685 10.5733 5.54632 9.2701 5.54632ZM23.7452 10.5282C23.4461 10.6853 21.6908 11.5378 19.4424 11.2225C19.4657 11.1113 19.4855 10.9993 19.5017 10.8868C20.9981 10.7012 22.2145 10.438 22.9897 9.99089C23.8733 9.4809 24.2597 8.26348 23.8138 7.3579C23.8022 7.33508 23.7701 7.33096 23.7542 7.35018C23.5097 7.64194 21.973 9.37535 19.5517 9.91426C19.5455 9.78418 19.5341 9.65443 19.5173 9.52535C20.6933 8.83388 21.8414 8.03711 22.3882 7.30856C23.2145 6.20707 23.1385 4.80198 22.3522 4.08562C22.344 4.07833 22.3332 4.07505 22.3225 4.07661C22.3119 4.07817 22.3024 4.08442 22.2965 4.09377C22.0477 4.5194 19.7189 8.42215 17.1621 10.1072C17.1309 10.1278 17.0995 10.1481 17.0678 10.1679C16.9944 10.2141 16.9864 10.3129 17.0487 10.3716C17.3437 10.6486 17.5268 11.034 17.5268 11.4621C17.5268 12.2063 16.9737 12.8252 16.2424 12.9595C15.8708 13.0341 15.3346 13.0124 14.8192 12.8357C14.7961 12.828 14.7721 12.8439 14.7721 12.868V15.2248C14.7721 15.2627 14.8277 15.2721 14.8407 15.2359C15.1541 14.3754 16.0916 14.1926 16.5017 14.1926C16.6493 15.1122 16.9128 15.8738 17.2552 16.2839C17.8128 16.95 18.7234 16.9407 19.1181 16.4801C19.1246 16.4725 19.1274 16.4622 19.1256 16.4522C19.1239 16.4421 19.1179 16.4335 19.1093 16.4286C18.8773 16.2905 17.5501 15.4455 17.2844 14.0609C17.3887 14.0242 17.4907 13.9807 17.5896 13.9307C18.0181 14.6659 18.6417 15.3206 19.1437 15.5708C19.987 15.9901 20.759 15.7861 21.1013 15.1722C21.1138 15.1505 21.0985 15.1236 21.0734 15.1212C20.5517 15.078 18.9509 14.6023 18.2693 13.4433C18.3482 13.3691 18.4235 13.2909 18.4949 13.209C19.2083 13.7721 20.2167 14.2698 20.9386 14.3714C21.7834 14.4905 22.7406 14.211 22.7638 13.1924C22.7642 13.172 22.7466 13.1553 22.7257 13.1565C22.4253 13.1754 20.437 13.2651 19.0202 12.4218C19.0694 12.3248 19.1153 12.2259 19.1578 12.1256C19.1578 12.1256 21.2986 12.6503 22.313 12.4765C23.321 12.304 23.9114 11.5249 23.7974 10.5554C23.7941 10.5314 23.7669 10.5168 23.7452 10.5282ZM4.84174 12.1253C4.88433 12.2257 4.93033 12.3245 4.97965 12.4215C3.56324 13.2644 1.57579 13.1754 1.27405 13.1562C1.25287 13.155 1.23516 13.1726 1.23565 13.1925C1.25924 14.2108 2.21609 14.4903 3.06089 14.3712C3.78255 14.2696 4.79138 13.7719 5.50451 13.2089C5.57609 13.2906 5.65138 13.3688 5.7301 13.4431C5.04817 14.602 3.44762 15.0778 2.92608 15.121C2.90084 15.1236 2.88611 15.1504 2.89811 15.1721C3.24048 15.7861 4.01245 15.99 4.85617 15.5707C5.35769 15.3205 5.98128 14.6658 6.40955 13.9306C6.50867 13.9805 6.61065 14.024 6.71493 14.0608C6.44928 15.4454 5.12208 16.2902 4.89011 16.4286C4.88153 16.4335 4.87555 16.4422 4.87383 16.4522C4.87211 16.4622 4.87484 16.4724 4.88125 16.4801C5.27601 16.9406 6.18685 16.9499 6.74448 16.2838C7.08685 15.8738 7.3501 15.1121 7.49758 14.1925C7.90806 14.1925 8.8453 14.3753 9.15854 15.2357C9.17203 15.272 9.22765 15.2626 9.22765 15.2246V12.8679C9.22765 12.8439 9.20323 12.8279 9.18006 12.8357C8.66489 13.0124 8.12845 13.0339 7.75727 12.9592C7.02569 12.8251 6.47245 12.2062 6.47245 11.4621C6.47245 11.0342 6.65617 10.6483 6.95046 10.3714C7.01336 10.313 7.00483 10.2142 6.93209 10.168C6.90012 10.1482 6.8684 10.128 6.83692 10.1073C4.28166 8.42326 1.95416 4.52317 1.70324 4.0948C1.69728 4.08521 1.68762 4.07877 1.67674 4.07713C1.66585 4.07548 1.65482 4.0788 1.64647 4.08622C0.861255 4.80301 0.784952 6.2075 1.6113 7.30873C2.15816 8.03728 3.30619 8.83405 4.48178 9.52553C4.46521 9.65455 4.45389 9.78424 4.44784 9.91426C2.02856 9.37587 0.49298 7.64537 0.246194 7.35155C0.229642 7.33147 0.196952 7.33551 0.18578 7.35842C-0.259461 8.2646 0.127021 9.48099 1.00972 9.99097C1.78501 10.4381 3.00147 10.7012 4.49783 10.8869C4.514 10.9994 4.53373 11.1114 4.557 11.2226C2.31094 11.5375 0.556621 10.6869 0.255049 10.5287C0.232704 10.5168 0.205559 10.5315 0.202745 10.556C0.0891182 11.5253 0.679104 12.3037 1.6871 12.4763C2.69681 12.6493 4.82359 12.1298 4.84174 12.1253ZM17.9841 18.7649L18.764 19.4011L19.5444 18.7647C19.992 19.0402 20.2728 19.5456 20.2071 20.1085C20.132 20.7511 19.5879 21.2708 18.9207 21.3386C18.3335 21.3985 17.8132 21.1183 17.5316 20.6801C17.0909 20.226 15.9772 19.8875 15.0732 19.8875C14.9324 19.8875 14.8668 19.7642 14.9151 19.6435C15.2772 18.7407 14.4988 18.0867 13.694 18.6191C13.3428 18.8512 12.986 19.3086 12.7167 20.0714C14.038 20.4031 15.6972 21.3169 16.032 22.3144C16.162 22.6995 15.7345 23.2246 15.2164 23.3302C15.1973 23.3344 15.1786 23.3219 15.1744 23.3021C14.9036 21.813 13.3597 20.7034 12.5557 20.5149C12.5308 20.5838 12.5262 20.5967 12.5171 20.6223L12.4885 20.7026C13.3637 21.1318 14.212 22.0372 14.4548 23.1132C14.5657 23.6061 14.0361 24.0503 13.598 24.1719C13.5878 24.1747 13.577 24.1728 13.5684 24.1666C13.5598 24.1604 13.5542 24.1506 13.5533 24.1397C13.4704 22.7787 12.8905 21.6235 12.3716 21.0974C12.3573 21.2002 12.3465 21.3036 12.3392 21.4072C12.3392 21.4072 12.8707 22.9431 12.8707 24.0638C12.8707 24.5852 12.1239 24.9491 11.986 25C11.8757 24.9491 11.1284 24.5852 11.1284 24.0638C11.1284 22.9432 11.66 21.4073 11.66 21.4073C11.6529 21.3037 11.6422 21.2003 11.628 21.0975C11.1087 21.6233 10.5292 22.7792 10.446 24.1402C10.4448 24.1621 10.4232 24.1779 10.4012 24.1719C9.96362 24.0503 9.43355 23.6061 9.54486 23.1132C9.78718 22.037 10.6359 21.1318 11.5112 20.7026L11.469 20.5856L11.4437 20.515C10.6401 20.7035 9.09564 21.8131 8.82486 23.3022C8.82294 23.3117 8.81742 23.3201 8.80954 23.3253C8.80166 23.3306 8.79207 23.3324 8.7829 23.3303C8.2645 23.2247 7.83763 22.6997 7.9669 22.3146C8.30249 21.3171 9.9613 20.4033 11.2824 20.0716C11.0136 19.3087 10.6568 18.8514 10.3056 18.6192C9.50033 18.0869 8.72199 18.7409 9.08406 19.6437C9.13239 19.7644 9.06635 19.8876 8.92599 19.8876C8.12687 19.8876 7.16398 20.1524 6.64715 20.528C6.64715 20.528 7.27363 21.1311 7.28357 21.1424C7.32875 21.1857 7.36152 21.2428 7.36649 21.3093C7.37808 21.4566 7.26362 21.585 7.11077 21.5956C7.02685 21.6018 6.95154 21.5692 6.89609 21.5169L6.27126 20.9156C6.08489 21.0287 5.8525 21.0785 5.60531 21.027C5.25524 20.9535 4.98131 20.6708 4.92528 20.3297C4.88969 20.1114 4.94125 19.9066 5.04966 19.7398C5.04966 19.7398 2.68931 17.4274 2.66969 17.4002L2.55847 17.456C2.30523 17.613 2.00647 17.4171 2.01805 17.2798C1.8393 17.4503 1.01287 17.5115 0.766497 16.6474C0.934083 16.6621 1.27405 16.6535 1.27405 16.6535C1.27405 16.6535 0.867296 16.0008 1.16043 15.641C1.49411 15.3195 2.15849 15.6919 2.15849 15.6919C2.15849 15.6919 2.14567 15.3456 2.12043 15.1758C2.98128 15.3713 2.97408 16.2162 2.81891 16.4092C2.95248 16.3886 3.16376 16.6804 3.02556 16.9481L3.00569 16.9962C3.05005 17.0194 5.47355 19.3988 5.47355 19.3988C5.57817 19.3585 5.68886 19.3379 5.80045 19.3378C6.06288 19.3378 6.29725 19.448 6.45979 19.6227C7.0765 19.701 8.39137 19.3914 8.26806 19.198C6.86572 17.1533 7.93885 15.936 9.22765 16.0038V17.3768C9.22765 17.8178 9.59799 18.1752 10.0556 18.1752H10.9455C11.5839 18.1752 11.9996 18.8406 11.9996 18.8406C11.9996 18.8406 12.4152 18.1752 13.0536 18.1752H13.9436C14.4008 18.1752 14.772 17.8178 14.772 17.3768V16.0038C16.0608 15.936 17.1331 17.1534 15.7311 19.198C15.6068 19.3934 16.8859 19.688 17.3551 19.62C17.444 19.2622 17.6727 18.9571 17.9841 18.7649ZM13.7137 15.6957C13.7285 15.2797 13.2928 15.1932 13.0149 15.3001C12.9322 15.3322 12.8798 15.3703 12.8993 15.4772C12.9506 15.7546 12.9988 16.0326 13.049 16.3226C13.069 16.4378 13.0892 16.5549 13.1102 16.6746C13.3393 16.4156 13.811 16.3054 13.811 16.6375C13.811 17.0272 13.4825 17.3902 13.0345 17.6195L11.4692 13.1659C11.5825 13.1369 11.8029 13.1312 11.884 13.1451C11.8556 13.0924 11.8449 13.0435 11.8449 12.9978C11.8449 12.7921 11.9876 12.7 12.1161 12.7C12.2788 12.7 12.3301 12.8265 12.3301 12.895C12.3301 13.0108 12.2213 13.123 12.1853 13.1517C12.109 13.2107 12.1233 13.2568 12.1785 13.3242C12.2353 13.3931 12.3536 13.5514 12.3784 13.6474C12.5425 13.3927 13.1393 13.2597 13.3777 13.4385C13.6625 13.6514 13.6061 14.0928 13.3629 14.378C13.3268 14.4204 13.2664 14.4845 13.2181 14.4824C13.1405 14.4796 13.1061 14.4196 13.1136 14.3205C13.1146 14.3067 13.1161 14.2907 13.1176 14.2733C13.1291 14.1475 13.1474 13.9452 13.0681 13.9452C12.9005 13.9452 12.9149 14.2272 12.9541 14.3774C12.9872 14.5024 13.0177 14.6282 13.0501 14.7625C13.0658 14.8275 13.082 14.8945 13.0993 14.9643C13.5241 14.8914 13.9301 15.0707 13.8469 15.6937C13.8376 15.7901 13.7101 15.7901 13.7137 15.6957ZM10.8016 12.2746L11.1305 13.222C10.849 13.2915 10.3961 13.5043 10.3961 13.7862C10.3961 14.1615 11.0367 14.4059 11.4069 14.3766C11.3886 14.4622 11.4097 14.5385 11.4673 14.6083C11.3329 14.6083 11.0794 14.6732 10.9961 14.7662C10.7997 14.5765 10.4925 14.5075 10.3465 14.6229C10.1997 14.7392 10.1953 14.9363 10.3485 15.159C10.4553 15.3132 10.4953 15.4654 10.3753 15.644C10.6498 15.644 10.6933 15.4164 10.7268 15.2412C10.7478 15.1315 10.7648 15.0423 10.8322 15.0423C10.8092 15.159 10.8232 15.294 10.874 15.4438C10.9076 15.5433 10.9076 15.614 10.85 15.7098C10.706 15.9485 10.4821 16.4967 10.5124 16.9925C10.3661 16.9916 10.2917 16.9546 10.3432 16.7472C10.3624 16.6702 10.3165 16.6151 10.2557 16.7102C10.1885 16.815 10.156 16.9942 10.156 17.0708C10.156 17.5122 10.6633 17.6011 10.8568 17.5077C11.4169 18.0698 12.517 17.9198 12.8852 17.7313L10.9484 12.221C10.9089 12.1169 10.7669 12.1665 10.8016 12.2746ZM10.7346 16.8136C10.9022 16.6905 11.2357 16.6359 11.5166 16.6359C11.355 16.4845 11.3037 16.0451 11.3862 15.7901C10.999 16.1814 10.6946 16.5868 10.7346 16.8136Z" fill="white"/>
</svg>
